<svg width="32" height="32" viewBox="0 0 32 32" fill="none" xmlns="http://www.w3.org/2000/svg">
  <!-- Background -->
  <rect width="32" height="32" rx="4" fill="#37474F"/>

  <!-- Vanity Cabinet Body -->
  <rect x="5" y="12" width="22" height="14" rx="2" fill="#607D8B"/>

  <!-- Cabinet Doors -->
  <rect x="6" y="13" width="9" height="12" rx="1" fill="#455A64" stroke="#78909C" stroke-width="0.5"/>
  <rect x="17" y="13" width="9" height="12" rx="1" fill="#455A64" stroke="#78909C" stroke-width="0.5"/>

  <!-- Door Handles -->
  <circle cx="14" cy="19" r="1" fill="#26C6DA"/>
  <circle cx="18" cy="19" r="1" fill="#26C6DA"/>

  <!-- Countertop -->
  <rect x="4" y="10" width="24" height="3" rx="1" fill="#B0BEC5"/>

  <!-- Sink Basin -->
  <ellipse cx="16" cy="11" rx="5" ry="1.5" fill="#ECEFF1"/>
  <ellipse cx="16" cy="11" rx="3.5" ry="1" fill="#CFD8DC"/>

  <!-- Faucet -->
  <rect x="15" y="6" width="2" height="4" rx="1" fill="#26C6DA"/>
  <path d="M14 6.5C14 5.5 15 4.5 16 4.5C17 4.5 18 5.5 18 6.5" stroke="#26C6DA" stroke-width="1.5" fill="none" stroke-linecap="round"/>

  <!-- Legs -->
  <rect x="7" y="26" width="2" height="3" rx="0.5" fill="#455A64"/>
  <rect x="23" y="26" width="2" height="3" rx="0.5" fill="#455A64"/>
</svg>
